<svg xmlns="http://www.w3.org/2000/svg" xmlns:xlink="http://www.w3.org/1999/xlink" width="537" zoomAndPan="magnify" viewBox="0 0 402.75 183.000001" height="244" preserveAspectRatio="xMidYMid meet" version="1.0"><defs><g/><clipPath id="c504fa96f1"><path d="M 65.457031 83.339844 L 111.703125 83.339844 L 111.703125 134 L 65.457031 134 Z M 65.457031 83.339844 " clip-rule="nonzero"/></clipPath><clipPath id="42a1ade4d4"><path d="M 88 102 L 111.703125 102 L 111.703125 116 L 88 116 Z M 88 102 " clip-rule="nonzero"/></clipPath><clipPath id="23ce24956f"><path d="M 104 102 L 111.703125 102 L 111.703125 128 L 104 128 Z M 104 102 " clip-rule="nonzero"/></clipPath></defs><g fill="#292929" fill-opacity="1"><g transform="translate(78.758657, 133.263945)"><g/></g></g><g fill="#292929" fill-opacity="1"><g transform="translate(97.474059, 133.263945)"><g/></g></g><g fill="#292929" fill-opacity="1"><g transform="translate(116.194712, 133.263945)"><g><path d="M 5.609375 -50.171875 L 16.546875 -50.171875 L 16.546875 -10.265625 L 33.921875 -10.265625 L 33.921875 0 L 5.609375 0 Z M 5.609375 -50.171875 "/></g></g></g><g fill="#292929" fill-opacity="1"><g transform="translate(154.598427, 133.263945)"><g><path d="M 20.515625 -51.0625 L 27.484375 -51.0625 L 47.25 0 L 35.71875 0 L 32.640625 -8.453125 L 15.34375 -8.453125 L 12.359375 0 L 0.75 0 Z M 29.28125 -17.890625 L 24.03125 -32.640625 L 18.71875 -17.890625 Z M 29.28125 -17.890625 "/></g></g></g><g fill="#292929" fill-opacity="1"><g transform="translate(204.830105, 133.263945)"><g><path d="M 5.609375 -50.171875 L 21.34375 -50.171875 C 23.9375 -50.171875 26.34375 -49.769531 28.5625 -48.96875 C 30.78125 -48.164062 32.6875 -47.039062 34.28125 -45.59375 C 35.882812 -44.144531 37.132812 -42.421875 38.03125 -40.421875 C 38.9375 -38.429688 39.390625 -36.265625 39.390625 -33.921875 C 39.390625 -30.921875 38.664062 -28.207031 37.21875 -25.78125 C 35.769531 -23.363281 33.769531 -21.484375 31.21875 -20.140625 L 42.984375 0 L 30.25 0 L 20.515625 -17.59375 L 16.546875 -17.59375 L 16.546875 0 L 5.609375 0 Z M 20.8125 -27.25 C 23.15625 -27.25 25.015625 -27.835938 26.390625 -29.015625 C 27.765625 -30.191406 28.453125 -31.800781 28.453125 -33.84375 C 28.453125 -35.882812 27.753906 -37.40625 26.359375 -38.40625 C 24.960938 -39.40625 23.113281 -39.90625 20.8125 -39.90625 L 16.546875 -39.90625 L 16.546875 -27.25 Z M 20.8125 -27.25 "/></g></g></g><g fill="#292929" fill-opacity="1"><g transform="translate(251.169033, 133.263945)"><g><path d="M 5.609375 -50.171875 L 16.546875 -50.171875 L 16.546875 -27.625 L 32.125 -50.171875 L 44.703125 -50.171875 L 27.859375 -26.28125 L 45.671875 0 L 32.578125 0 L 16.546875 -23.734375 L 16.546875 0 L 5.609375 0 Z M 5.609375 -50.171875 "/></g></g></g><g fill="#292929" fill-opacity="1"><g transform="translate(298.705746, 133.263945)"><g><path d="M 5.609375 -50.171875 L 34.296875 -50.171875 L 34.296875 -39.90625 L 16.546875 -39.90625 L 16.546875 -30.703125 L 29.5 -30.703125 L 29.5 -20.4375 L 16.546875 -20.4375 L 16.546875 -10.265625 L 34.671875 -10.265625 L 34.671875 0 L 5.609375 0 Z M 5.609375 -50.171875 "/></g></g></g><g clip-path="url(#c504fa96f1)"><path fill="#292929" d="M 76.925781 108.652344 C 76.925781 99.347656 83.429688 92.992188 92.945312 92.992188 C 96.539062 92.992188 99.699219 93.910156 102.523438 95.847656 L 111.96875 90.8125 C 107.226562 85.921875 100.449219 83.339844 92.386719 83.339844 C 76.789062 83.339844 65.460938 93.898438 65.460938 108.652344 C 65.460938 123.410156 76.789062 133.96875 92.386719 133.96875 C 98.296875 133.96875 103.515625 132.578125 107.742188 129.921875 L 102.515625 121.457031 C 99.691406 123.398438 96.539062 124.316406 92.933594 124.316406 C 83.429688 124.316406 76.925781 117.960938 76.925781 108.652344 Z M 76.925781 108.652344 " fill-opacity="1" fill-rule="evenodd"/></g><g clip-path="url(#42a1ade4d4)"><path fill="#00d9d2" d="M 104.085938 114.988281 L 111.96875 102.363281 L 88.191406 115.050781 L 101.617188 115 Z M 104.085938 114.988281 " fill-opacity="1" fill-rule="evenodd"/></g><g clip-path="url(#23ce24956f)"><path fill="#008c87" d="M 111.96875 102.363281 L 104.085938 114.988281 L 111.96875 127.75 Z M 111.96875 102.363281 " fill-opacity="1" fill-rule="evenodd"/></g><g fill="#292929" fill-opacity="1"><g transform="translate(40.002329, 68.532261)"><g><path d="M 4.421875 -40.21875 L 8.84375 -40.21875 L 25.125 -18.8125 L 41.21875 -40.21875 L 45.640625 -40.21875 L 45.640625 0 L 37.03125 0 L 37.03125 -22 L 26.71875 -8.375 L 23.296875 -8.375 L 13.03125 -21.9375 L 13.03125 0 L 4.421875 0 Z M 4.421875 -40.21875 "/></g></g></g><g fill="#292929" fill-opacity="1"><g transform="translate(91.831194, 68.532261)"><g><path d="M 16.15625 -40.21875 L 21.640625 -40.21875 L 37.203125 0 L 28.125 0 L 25.703125 -6.65625 L 12.09375 -6.65625 L 9.734375 0 L 0.59375 0 Z M 23.0625 -14.09375 L 18.921875 -25.703125 L 14.75 -14.09375 Z M 23.0625 -14.09375 "/></g></g></g><g fill="#292929" fill-opacity="1"><g transform="translate(131.395749, 68.532261)"><g><path d="M 4.421875 -39.515625 L 20.046875 -39.515625 C 22.992188 -39.515625 25.71875 -39.007812 28.21875 -38 C 30.71875 -37 32.878906 -35.625 34.703125 -33.875 C 36.523438 -32.125 37.957031 -30.039062 39 -27.625 C 40.050781 -25.207031 40.578125 -22.582031 40.578125 -19.75 C 40.578125 -16.925781 40.050781 -14.3125 39 -11.90625 C 37.957031 -9.507812 36.523438 -7.425781 34.703125 -5.65625 C 32.878906 -3.882812 30.71875 -2.5 28.21875 -1.5 C 25.71875 -0.5 22.992188 0 20.046875 0 L 4.421875 0 Z M 20.109375 -8.078125 C 21.753906 -8.078125 23.265625 -8.367188 24.640625 -8.953125 C 26.023438 -9.546875 27.226562 -10.363281 28.25 -11.40625 C 29.269531 -12.445312 30.0625 -13.675781 30.625 -15.09375 C 31.195312 -16.507812 31.484375 -18.0625 31.484375 -19.75 C 31.484375 -21.445312 31.195312 -23 30.625 -24.40625 C 30.0625 -25.820312 29.269531 -27.050781 28.25 -28.09375 C 27.226562 -29.132812 26.023438 -29.953125 24.640625 -30.546875 C 23.265625 -31.140625 21.753906 -31.4375 20.109375 -31.4375 L 13.03125 -31.4375 L 13.03125 -8.078125 Z M 20.109375 -8.078125 "/></g></g></g><g fill="#292929" fill-opacity="1"><g transform="translate(175.79527, 68.532261)"><g><path d="M 4.421875 -39.515625 L 20.046875 -39.515625 C 22.992188 -39.515625 25.71875 -39.007812 28.21875 -38 C 30.71875 -37 32.878906 -35.625 34.703125 -33.875 C 36.523438 -32.125 37.957031 -30.039062 39 -27.625 C 40.050781 -25.207031 40.578125 -22.582031 40.578125 -19.75 C 40.578125 -16.925781 40.050781 -14.3125 39 -11.90625 C 37.957031 -9.507812 36.523438 -7.425781 34.703125 -5.65625 C 32.878906 -3.882812 30.71875 -2.5 28.21875 -1.5 C 25.71875 -0.5 22.992188 0 20.046875 0 L 4.421875 0 Z M 20.109375 -8.078125 C 21.753906 -8.078125 23.265625 -8.367188 24.640625 -8.953125 C 26.023438 -9.546875 27.226562 -10.363281 28.25 -11.40625 C 29.269531 -12.445312 30.0625 -13.675781 30.625 -15.09375 C 31.195312 -16.507812 31.484375 -18.0625 31.484375 -19.75 C 31.484375 -21.445312 31.195312 -23 30.625 -24.40625 C 30.0625 -25.820312 29.269531 -27.050781 28.25 -28.09375 C 27.226562 -29.132812 26.023438 -29.953125 24.640625 -30.546875 C 23.265625 -31.140625 21.753906 -31.4375 20.109375 -31.4375 L 13.03125 -31.4375 L 13.03125 -8.078125 Z M 20.109375 -8.078125 "/></g></g></g><g fill="#292929" fill-opacity="1"><g transform="translate(220.194792, 68.532261)"><g><path d="M 4.421875 -39.515625 L 13.03125 -39.515625 L 13.03125 0 L 4.421875 0 Z M 4.421875 -39.515625 "/></g></g></g><g fill="#292929" fill-opacity="1"><g transform="translate(239.417117, 68.532261)"><g><path d="M 15.03125 1.0625 C 11.96875 1.0625 9.21875 0.375 6.78125 -1 C 4.34375 -2.375 2.378906 -4.359375 0.890625 -6.953125 L 6.90625 -11.96875 C 8.945312 -8.3125 11.640625 -6.484375 14.984375 -6.484375 C 16.472656 -6.484375 17.675781 -6.847656 18.59375 -7.578125 C 19.519531 -8.304688 19.984375 -9.257812 19.984375 -10.4375 C 19.984375 -11.539062 19.53125 -12.492188 18.625 -13.296875 C 17.726562 -14.097656 16.097656 -15.015625 13.734375 -16.046875 C 10.078125 -17.648438 7.414062 -19.441406 5.75 -21.421875 C 4.082031 -23.410156 3.25 -25.785156 3.25 -28.546875 C 3.25 -30.273438 3.5625 -31.863281 4.1875 -33.3125 C 4.8125 -34.769531 5.691406 -36.019531 6.828125 -37.0625 C 7.972656 -38.101562 9.332031 -38.90625 10.90625 -39.46875 C 12.476562 -40.039062 14.207031 -40.328125 16.09375 -40.328125 C 21.09375 -40.328125 25.320312 -38.1875 28.78125 -33.90625 L 23.0625 -28.71875 C 21.957031 -30.175781 20.851562 -31.25 19.75 -31.9375 C 18.65625 -32.625 17.4375 -32.96875 16.09375 -32.96875 C 14.800781 -32.96875 13.769531 -32.640625 13 -31.984375 C 12.238281 -31.335938 11.859375 -30.460938 11.859375 -29.359375 C 11.859375 -28.140625 12.367188 -27.132812 13.390625 -26.34375 C 14.410156 -25.5625 15.941406 -24.722656 17.984375 -23.828125 C 21.722656 -22.171875 24.425781 -20.328125 26.09375 -18.296875 C 27.757812 -16.273438 28.59375 -13.890625 28.59375 -11.140625 C 28.59375 -9.335938 28.257812 -7.6875 27.59375 -6.1875 C 26.925781 -4.695312 26.003906 -3.410156 24.828125 -2.328125 C 23.648438 -1.242188 22.222656 -0.410156 20.546875 0.171875 C 18.878906 0.765625 17.039062 1.0625 15.03125 1.0625 Z M 15.03125 1.0625 "/></g></g></g><g fill="#292929" fill-opacity="1"><g transform="translate(272.024038, 68.532261)"><g><path d="M 22.46875 0.828125 C 19.5625 0.828125 16.867188 0.296875 14.390625 -0.765625 C 11.910156 -1.828125 9.753906 -3.28125 7.921875 -5.125 C 6.097656 -6.976562 4.664062 -9.148438 3.625 -11.640625 C 2.582031 -14.140625 2.0625 -16.84375 2.0625 -19.75 C 2.0625 -22.664062 2.582031 -25.378906 3.625 -27.890625 C 4.664062 -30.410156 6.097656 -32.59375 7.921875 -34.4375 C 9.753906 -36.28125 11.910156 -37.722656 14.390625 -38.765625 C 16.867188 -39.804688 19.5625 -40.328125 22.46875 -40.328125 C 25.332031 -40.328125 28.015625 -39.804688 30.515625 -38.765625 C 33.015625 -37.722656 35.175781 -36.28125 37 -34.4375 C 38.832031 -32.59375 40.269531 -30.410156 41.3125 -27.890625 C 42.351562 -25.378906 42.875 -22.664062 42.875 -19.75 C 42.875 -16.84375 42.351562 -14.140625 41.3125 -11.640625 C 40.269531 -9.148438 38.832031 -6.976562 37 -5.125 C 35.175781 -3.28125 33.015625 -1.828125 30.515625 -0.765625 C 28.015625 0.296875 25.332031 0.828125 22.46875 0.828125 Z M 22.46875 -7.546875 C 24.113281 -7.546875 25.625 -7.847656 27 -8.453125 C 28.382812 -9.066406 29.578125 -9.921875 30.578125 -11.015625 C 31.578125 -12.117188 32.363281 -13.414062 32.9375 -14.90625 C 33.507812 -16.40625 33.796875 -18.019531 33.796875 -19.75 C 33.796875 -21.476562 33.507812 -23.085938 32.9375 -24.578125 C 32.363281 -26.078125 31.578125 -27.367188 30.578125 -28.453125 C 29.578125 -29.535156 28.382812 -30.390625 27 -31.015625 C 25.625 -31.648438 24.113281 -31.96875 22.46875 -31.96875 C 20.8125 -31.96875 19.296875 -31.648438 17.921875 -31.015625 C 16.546875 -30.390625 15.359375 -29.535156 14.359375 -28.453125 C 13.359375 -27.367188 12.570312 -26.078125 12 -24.578125 C 11.425781 -23.085938 11.140625 -21.476562 11.140625 -19.75 C 11.140625 -18.019531 11.425781 -16.40625 12 -14.90625 C 12.570312 -13.414062 13.359375 -12.128906 14.359375 -11.046875 C 15.359375 -9.972656 16.546875 -9.117188 17.921875 -8.484375 C 19.296875 -7.859375 20.8125 -7.546875 22.46875 -7.546875 Z M 22.46875 -7.546875 "/></g></g></g><g fill="#292929" fill-opacity="1"><g transform="translate(318.723112, 68.532261)"><g><path d="M 12.5625 -23.53125 L 12.5625 0 L 4.421875 0 L 4.421875 -40.21875 L 8.90625 -40.21875 L 30.953125 -15.984375 L 30.953125 -39.515625 L 39.09375 -39.515625 L 39.09375 0.703125 L 34.609375 0.703125 Z M 12.5625 -23.53125 "/></g></g></g><g fill="#008c87" fill-opacity="1"><g transform="translate(136.655167, 170.809791)"><g><path d="M 8.484375 0.265625 C 6.953125 0.265625 5.632812 -0.0703125 4.53125 -0.75 C 3.425781 -1.425781 2.566406 -2.367188 1.953125 -3.578125 C 1.347656 -4.785156 1.046875 -6.191406 1.046875 -7.796875 C 1.046875 -9.378906 1.347656 -10.773438 1.953125 -11.984375 C 2.566406 -13.203125 3.425781 -14.148438 4.53125 -14.828125 C 5.632812 -15.515625 6.953125 -15.859375 8.484375 -15.859375 C 10.265625 -15.859375 11.710938 -15.429688 12.828125 -14.578125 C 13.953125 -13.722656 14.671875 -12.53125 14.984375 -11 L 12.921875 -11 C 12.679688 -11.96875 12.191406 -12.742188 11.453125 -13.328125 C 10.722656 -13.910156 9.734375 -14.203125 8.484375 -14.203125 C 7.367188 -14.203125 6.394531 -13.945312 5.5625 -13.4375 C 4.726562 -12.925781 4.085938 -12.191406 3.640625 -11.234375 C 3.191406 -10.273438 2.96875 -9.128906 2.96875 -7.796875 C 2.96875 -6.460938 3.191406 -5.316406 3.640625 -4.359375 C 4.085938 -3.398438 4.726562 -2.660156 5.5625 -2.140625 C 6.394531 -1.628906 7.367188 -1.375 8.484375 -1.375 C 9.734375 -1.375 10.722656 -1.660156 11.453125 -2.234375 C 12.191406 -2.804688 12.679688 -3.566406 12.921875 -4.515625 L 14.984375 -4.515625 C 14.671875 -3.015625 13.953125 -1.84375 12.828125 -1 C 11.710938 -0.15625 10.265625 0.265625 8.484375 0.265625 Z M 8.484375 0.265625 "/></g></g></g><g fill="#008c87" fill-opacity="1"><g transform="translate(162.594224, 170.809791)"><g><path d="M 1.640625 0 L 1.640625 -15.59375 L 3.515625 -15.59375 L 3.515625 -1.484375 L 10.78125 -1.484375 L 10.78125 0 Z M 1.640625 0 "/></g></g></g><g fill="#008c87" fill-opacity="1"><g transform="translate(184.192341, 170.809791)"><g><path d="M 0.671875 0 L 6.40625 -15.59375 L 8.390625 -15.59375 L 14.109375 0 L 12.140625 0 L 10.703125 -4.015625 L 4.078125 -4.015625 L 2.625 0 Z M 4.625 -5.515625 L 10.15625 -5.515625 L 7.390625 -13.21875 Z M 4.625 -5.515625 "/></g></g></g><g fill="#008c87" fill-opacity="1"><g transform="translate(208.884765, 170.809791)"><g><path d="M 1.640625 0 L 1.640625 -15.59375 L 3.515625 -15.59375 L 3.515625 0 Z M 1.640625 0 "/></g></g></g><g fill="#008c87" fill-opacity="1"><g transform="translate(223.960347, 170.809791)"><g><path d="M 1.640625 0 L 1.640625 -15.59375 L 3.828125 -15.59375 L 9.4375 -4.71875 L 15 -15.59375 L 17.21875 -15.59375 L 17.21875 0 L 15.34375 0 L 15.34375 -12.25 L 10.125 -2.234375 L 8.734375 -2.234375 L 3.515625 -12.21875 L 3.515625 0 Z M 1.640625 0 "/></g></g></g><g fill="#008c87" fill-opacity="1"><g transform="translate(252.726574, 170.809791)"><g><path d="M 6.609375 0.265625 C 5.472656 0.265625 4.476562 0.0546875 3.625 -0.359375 C 2.78125 -0.773438 2.128906 -1.351562 1.671875 -2.09375 C 1.210938 -2.832031 0.984375 -3.691406 0.984375 -4.671875 L 2.9375 -4.671875 C 2.9375 -4.066406 3.078125 -3.507812 3.359375 -3 C 3.640625 -2.488281 4.050781 -2.078125 4.59375 -1.765625 C 5.132812 -1.460938 5.804688 -1.3125 6.609375 -1.3125 C 7.660156 -1.3125 8.476562 -1.5625 9.0625 -2.0625 C 9.644531 -2.570312 9.9375 -3.207031 9.9375 -3.96875 C 9.9375 -4.59375 9.800781 -5.09375 9.53125 -5.46875 C 9.257812 -5.84375 8.894531 -6.148438 8.4375 -6.390625 C 7.988281 -6.628906 7.472656 -6.835938 6.890625 -7.015625 C 6.304688 -7.191406 5.691406 -7.390625 5.046875 -7.609375 C 3.847656 -8.023438 2.957031 -8.539062 2.375 -9.15625 C 1.800781 -9.78125 1.515625 -10.585938 1.515625 -11.578125 C 1.492188 -12.410156 1.679688 -13.148438 2.078125 -13.796875 C 2.484375 -14.441406 3.054688 -14.945312 3.796875 -15.3125 C 4.535156 -15.675781 5.40625 -15.859375 6.40625 -15.859375 C 7.40625 -15.859375 8.269531 -15.671875 9 -15.296875 C 9.738281 -14.921875 10.3125 -14.40625 10.71875 -13.75 C 11.125 -13.101562 11.335938 -12.363281 11.359375 -11.53125 L 9.390625 -11.53125 C 9.390625 -11.957031 9.28125 -12.382812 9.0625 -12.8125 C 8.84375 -13.238281 8.503906 -13.582031 8.046875 -13.84375 C 7.597656 -14.113281 7.03125 -14.25 6.34375 -14.25 C 5.5 -14.257812 4.804688 -14.039062 4.265625 -13.59375 C 3.722656 -13.15625 3.453125 -12.539062 3.453125 -11.75 C 3.453125 -11.082031 3.640625 -10.570312 4.015625 -10.21875 C 4.398438 -9.863281 4.929688 -9.570312 5.609375 -9.34375 C 6.296875 -9.113281 7.082031 -8.847656 7.96875 -8.546875 C 8.707031 -8.285156 9.375 -7.972656 9.96875 -7.609375 C 10.5625 -7.253906 11.023438 -6.796875 11.359375 -6.234375 C 11.703125 -5.671875 11.875 -4.953125 11.875 -4.078125 C 11.875 -3.335938 11.675781 -2.632812 11.28125 -1.96875 C 10.894531 -1.3125 10.3125 -0.773438 9.53125 -0.359375 C 8.757812 0.0546875 7.785156 0.265625 6.609375 0.265625 Z M 6.609375 0.265625 "/></g></g></g></svg>